# xmcd
#
# Track frame offsets: 
#        183
#        18045
#        28793
#        43408
#        60105
#        75070
#        99843
#        116320
#        132305
#        153485
#        170798
#        186420
#
# Disc length: 2775 seconds
#
# Revision: 6
# Processed by: cddbd v1.5.2PL0 Copyright (c) Steve Scherf et al.
# Submitted via: ExactAudioCopyFreeDBPlugin 1.0
#
DISCID=8a0ad50c
DTITLE=Gary Morris - Hits
DYEAR=2009
DGENRE=Country
TTITLE0=That's The Way It Is
TTITLE1=Velvet Chains
TTITLE2=Headed For A Heartache
TTITLE3=100% Chance Of Rain
TTITLE4=Baby Bye Bye
TTITLE5=Finishing Touches
TTITLE6=I'll Never Stop Loving You
TTITLE7=The Love She Found In Me
TTITLE8=The Wind Beneath My Wings
TTITLE9=Leave Me Lonely
TTITLE10=Lasso The Moon
TTITLE11="Your Little Hand" (Aria From "La Boheme")
EXTD=
EXTT0=
EXTT1=
EXTT2=
EXTT3=
EXTT4=
EXTT5=
EXTT6=
EXTT7=
EXTT8=
EXTT9=
EXTT10=
EXTT11=
PLAYORDER=
